<svg width="96" height="36" viewBox="0 0 96 36" fill="none" xmlns="http://www.w3.org/2000/svg">
<rect width="95.497" height="36" rx="18" fill="#D9D9D9"/>
<path d="M15 12H19V24H15V12Z" fill="#616161"/>
<path d="M21 12H23V24H21V12Z" fill="#616161"/>
<path d="M34.3635 18.39C35.8835 18.39 36.6435 18.8733 36.6435 19.84C36.6435 20.2933 36.5402 20.68 36.3335 21C36.1268 21.3133 35.7568 21.56 35.2235 21.74C34.6902 21.9133 33.9502 22 33.0035 22H28.5035C28.5568 20.7067 28.5835 19.4967 28.5835 18.37C28.5835 17.2433 28.5568 16.0333 28.5035 14.74H30.8535V14.75H32.9835C33.8102 14.75 34.4602 14.82 34.9335 14.96C35.4135 15.0933 35.7502 15.29 35.9435 15.55C36.1435 15.81 36.2435 16.14 36.2435 16.54C36.2435 16.9467 36.1002 17.31 35.8135 17.63C35.5335 17.9433 35.0502 18.1967 34.3635 18.39ZM30.8535 16.57V17.5H32.7735C33.1868 17.5 33.4735 17.4633 33.6335 17.39C33.8002 17.3167 33.8835 17.1833 33.8835 16.99C33.8835 16.8367 33.7968 16.73 33.6235 16.67C33.4569 16.6033 33.1735 16.57 32.7735 16.57H30.8535ZM32.7735 20.17C33.1202 20.17 33.3835 20.1567 33.5635 20.13C33.7502 20.0967 33.8835 20.0433 33.9635 19.97C34.0435 19.89 34.0835 19.7833 34.0835 19.65C34.0835 19.4767 33.9868 19.3533 33.7935 19.28C33.6068 19.2 33.2668 19.16 32.7735 19.16H30.8535V20.17H32.7735Z" fill="#616161"/>
<path d="M41.8891 22.1C40.3624 22.1 39.2391 21.77 38.5191 21.11C37.7991 20.4433 37.4391 19.51 37.4391 18.31C37.4391 17.1233 37.7957 16.1967 38.5091 15.53C39.2291 14.8633 40.3557 14.53 41.8891 14.53C43.4291 14.53 44.5557 14.8633 45.2691 15.53C45.9891 16.1967 46.3491 17.1233 46.3491 18.31C46.3491 19.5167 45.9924 20.45 45.2791 21.11C44.5657 21.77 43.4357 22.1 41.8891 22.1ZM41.8891 20.06C42.6291 20.06 43.1624 19.92 43.4891 19.64C43.8157 19.3533 43.9791 18.91 43.9791 18.31C43.9791 17.7233 43.8157 17.2867 43.4891 17C43.1624 16.7133 42.6291 16.57 41.8891 16.57C41.1557 16.57 40.6257 16.7133 40.2991 17C39.9724 17.2867 39.8091 17.7233 39.8091 18.31C39.8091 18.9033 39.9724 19.3433 40.2991 19.63C40.6257 19.9167 41.1557 20.06 41.8891 20.06Z" fill="#616161"/>
<path d="M52.3661 22C52.0528 21.4333 51.5328 20.5667 50.8061 19.4L49.6361 20.56V22H47.1461C47.1994 20.7067 47.2261 19.4967 47.2261 18.37C47.2261 17.2433 47.1994 16.0333 47.1461 14.74H49.6361V17.67C50.8628 16.4567 51.7361 15.48 52.2561 14.74H55.4961L52.3461 17.86C52.8128 18.5133 53.3361 19.2233 53.9161 19.99C54.5028 20.7567 55.0328 21.4267 55.5061 22H52.3661Z" fill="#616161"/>
<path d="M62.1162 16.73C61.3229 16.69 60.7363 16.6667 60.3563 16.66V20.08C60.7429 20.0733 61.3296 20.05 62.1162 20.01V22H56.3063V20.01C57.0729 20.05 57.6562 20.0733 58.0563 20.08V16.66C57.6562 16.6667 57.0729 16.69 56.3063 16.73V14.74H62.1162V16.73Z" fill="#616161"/>
<path d="M71.3076 14.75C71.2609 15.8767 71.2376 17.0833 71.2376 18.37C71.2376 19.6633 71.2609 20.8733 71.3076 22H67.7276L65.3076 16.54L65.4876 22H62.9176C62.9709 20.7067 62.9976 19.4967 62.9976 18.37C62.9976 17.25 62.9709 16.0433 62.9176 14.75H66.5976L69.0276 20.36L68.8576 14.75H71.3076Z" fill="#616161"/>
<path d="M76.227 17.86H80.497V22H78.737L78.527 20.23C78.327 20.8633 77.9704 21.3333 77.457 21.64C76.9437 21.9467 76.317 22.1 75.577 22.1C74.9037 22.1 74.3037 21.95 73.777 21.65C73.257 21.35 72.847 20.92 72.547 20.36C72.2537 19.8 72.107 19.1467 72.107 18.4C72.107 17.2067 72.4637 16.2633 73.177 15.57C73.8904 14.8767 75.0004 14.53 76.507 14.53C77.367 14.53 78.1237 14.67 78.777 14.95C79.437 15.23 79.997 15.6633 80.457 16.25C80.157 16.4033 79.5704 16.71 78.697 17.17L78.447 17.31C78.187 17.05 77.8837 16.8567 77.537 16.73C77.1904 16.5967 76.8237 16.53 76.437 16.53C75.797 16.53 75.3204 16.7 75.007 17.04C74.6937 17.3733 74.537 17.7867 74.537 18.28C74.537 18.8133 74.7037 19.2433 75.037 19.57C75.377 19.8967 75.8937 20.06 76.587 20.06C76.887 20.06 77.177 20.0167 77.457 19.93C77.7437 19.8433 77.9837 19.6933 78.177 19.48H76.227V17.86Z" fill="#616161"/>
</svg>
