<svg width="78" height="36" viewBox="0 0 78 36" fill="none" xmlns="http://www.w3.org/2000/svg">
<rect width="77.7182" height="36" rx="18" fill="#D9D9D9"/>
<path d="M29 16.0923H21.4077L26.2175 11.2825L24.8686 9.93347L19.5001 15.3022V8.5H17.5923V16.0923L12.7825 11.2825L11.4335 12.6314L16.8022 18.0001H10V19.9077H17.5923L12.7825 24.7175L14.1314 26.0665L19.5001 20.698V27.5H21.4077V19.9077L26.2175 24.7175L27.5665 23.3686L22.198 18.0001H29V16.0923Z" fill="#616161"/>
<path d="M37 22.6085V13.3915H38.742V22.6085H37Z" fill="#616161"/>
<path d="M40.9229 22.6085V13.3915H49.9969V14.7305H42.6649V17.3695H49.7369V18.6175H42.6649V21.2565H49.9969V22.6085H40.9229Z" fill="#616161"/>
<path d="M51.5966 22.6085L56.7056 13.3915H58.9156L63.9986 22.6085H62.1396L61.0086 20.5025H54.5996L53.4686 22.6085H51.5966ZM55.3016 19.2025H60.3066L57.8106 14.5355L55.3016 19.2025Z" fill="#616161"/>
<path d="M65.6772 22.6085V21.0095H67.7182V22.6085H65.6772Z" fill="#616161"/>
</svg>
