<svg width="99" height="36" viewBox="0 0 99 36" fill="none" xmlns="http://www.w3.org/2000/svg">
<rect width="98.707" height="36" rx="18" fill="#D9D9D9"/>
<path d="M14.2578 23.6533H13V13.8096H14.7637L20.7451 20.5703V13.8096H21.9961V23.6533H20.2324L14.2578 16.8994V23.6533Z" fill="#616161"/>
<path d="M26.4189 13.8506C26.4189 14.0238 26.3848 14.1878 26.3164 14.3428C26.2526 14.4977 26.1637 14.6322 26.0498 14.7461C25.9359 14.86 25.8014 14.9512 25.6465 15.0195C25.4915 15.0833 25.3275 15.1152 25.1543 15.1152C24.9811 15.1152 24.8171 15.0833 24.6621 15.0195C24.5117 14.9512 24.3796 14.86 24.2656 14.7461C24.1517 14.6322 24.0605 14.4977 23.9922 14.3428C23.9284 14.1878 23.8965 14.0238 23.8965 13.8506C23.8965 13.6774 23.9284 13.5156 23.9922 13.3652C24.0605 13.2103 24.1517 13.0758 24.2656 12.9619C24.3796 12.848 24.5117 12.7591 24.6621 12.6953C24.8171 12.627 24.9811 12.5928 25.1543 12.5928C25.3275 12.5928 25.4915 12.627 25.6465 12.6953C25.8014 12.7591 25.9359 12.848 26.0498 12.9619C26.1637 13.0758 26.2526 13.2103 26.3164 13.3652C26.3848 13.5156 26.4189 13.6774 26.4189 13.8506ZM26.3164 23.6533H23.999V15.7646H26.3164V23.6533Z" fill="#616161"/>
<path d="M35.0527 21.1309C35.0527 21.4772 35.0026 21.7848 34.9023 22.0537C34.8021 22.3226 34.6654 22.5573 34.4922 22.7578C34.319 22.9538 34.1139 23.1201 33.877 23.2568C33.64 23.389 33.3848 23.4961 33.1113 23.5781C32.8424 23.6602 32.5599 23.7194 32.2637 23.7559C31.9674 23.7923 31.6735 23.8105 31.3818 23.8105C30.9899 23.8105 30.6436 23.7855 30.3428 23.7354C30.042 23.6852 29.7549 23.6055 29.4814 23.4961C29.208 23.3822 28.9346 23.2363 28.6611 23.0586C28.3923 22.8809 28.0915 22.6644 27.7588 22.4092L29.1055 21.3086C29.2285 21.541 29.3903 21.7529 29.5908 21.9443C29.7959 22.1312 30.0078 22.293 30.2266 22.4297C30.4453 22.5664 30.6572 22.6712 30.8623 22.7441C31.0674 22.8171 31.2337 22.8535 31.3613 22.8535C31.4661 22.8535 31.5846 22.8512 31.7168 22.8467C31.849 22.8376 31.9834 22.8239 32.1201 22.8057C32.2568 22.7829 32.3913 22.751 32.5234 22.71C32.6556 22.6689 32.7718 22.6143 32.8721 22.5459C32.9769 22.473 33.0589 22.3841 33.1182 22.2793C33.182 22.1699 33.2139 22.04 33.2139 21.8896C33.2139 21.7347 33.1729 21.6003 33.0908 21.4863C33.0133 21.3678 32.9108 21.2653 32.7832 21.1787C32.6556 21.0921 32.5098 21.0192 32.3457 20.96C32.1816 20.9007 32.0153 20.8483 31.8467 20.8027C31.6826 20.7572 31.5231 20.7184 31.3682 20.6865C31.2132 20.6501 31.0788 20.6159 30.9648 20.584C30.7552 20.5247 30.5342 20.4655 30.3018 20.4062C30.0693 20.3424 29.8392 20.2718 29.6113 20.1943C29.3835 20.1123 29.1647 20.0166 28.9551 19.9072C28.75 19.7979 28.5677 19.668 28.4082 19.5176C28.2533 19.3626 28.1279 19.1826 28.0322 18.9775C27.9411 18.7679 27.8955 18.5241 27.8955 18.2461C27.8955 17.7357 27.9958 17.3096 28.1963 16.9678C28.4014 16.6214 28.6702 16.3457 29.0029 16.1406C29.3356 15.931 29.7139 15.7829 30.1377 15.6963C30.5615 15.6097 30.9922 15.5664 31.4297 15.5664C31.7305 15.5664 32.0472 15.5983 32.3799 15.6621C32.7126 15.7214 33.0361 15.8125 33.3506 15.9355C33.665 16.054 33.959 16.1999 34.2324 16.373C34.5059 16.5462 34.7337 16.7445 34.916 16.9678L33.5693 18.0752C33.4691 17.8018 33.3369 17.5671 33.1729 17.3711C33.0133 17.1751 32.8379 17.0156 32.6465 16.8926C32.4596 16.765 32.266 16.6715 32.0654 16.6123C31.8695 16.5531 31.6872 16.5234 31.5186 16.5234C31.3545 16.5234 31.1699 16.5303 30.9648 16.5439C30.7598 16.5576 30.5661 16.5964 30.3838 16.6602C30.2061 16.724 30.0534 16.8219 29.9258 16.9541C29.8027 17.0817 29.7412 17.2594 29.7412 17.4873C29.7412 17.6514 29.7777 17.7926 29.8506 17.9111C29.9281 18.0251 30.0283 18.1253 30.1514 18.2119C30.2744 18.2939 30.4134 18.3646 30.5684 18.4238C30.7279 18.4785 30.8896 18.5286 31.0537 18.5742C31.2178 18.6152 31.3773 18.6517 31.5322 18.6836C31.6872 18.7155 31.8262 18.7497 31.9492 18.7861C32.1589 18.8454 32.3799 18.9069 32.6123 18.9707C32.8493 19.0299 33.0817 19.1006 33.3096 19.1826C33.5374 19.2601 33.7562 19.3535 33.9658 19.4629C34.18 19.5677 34.3669 19.6976 34.5264 19.8525C34.6859 20.0075 34.8135 20.1898 34.9092 20.3994C35.0049 20.6045 35.0527 20.8483 35.0527 21.1309Z" fill="#616161"/>
<path d="M43.8027 17.7129L42.8047 18.1094C42.6452 17.6081 42.3786 17.223 42.0049 16.9541C41.6312 16.6852 41.1823 16.5508 40.6582 16.5508C40.3757 16.5508 40.1227 16.5964 39.8994 16.6875C39.6807 16.7741 39.487 16.8949 39.3184 17.0498C39.1543 17.2048 39.013 17.3848 38.8945 17.5898C38.7806 17.7949 38.6872 18.0137 38.6143 18.2461C38.5413 18.4785 38.4889 18.7201 38.457 18.9707C38.4251 19.2168 38.4092 19.4561 38.4092 19.6885C38.4092 19.9391 38.4229 20.1921 38.4502 20.4473C38.4775 20.7025 38.5231 20.9486 38.5869 21.1855C38.6553 21.418 38.7441 21.6367 38.8535 21.8418C38.9629 22.0423 39.0996 22.2178 39.2637 22.3682C39.4323 22.5186 39.6305 22.637 39.8584 22.7236C40.0908 22.8102 40.3574 22.8535 40.6582 22.8535C40.8997 22.8535 41.1299 22.8171 41.3486 22.7441C41.5674 22.6712 41.7679 22.5687 41.9502 22.4365C42.1325 22.3044 42.2943 22.1471 42.4355 21.9648C42.5768 21.7826 42.6885 21.5798 42.7705 21.3564L43.7754 21.7256C43.625 22.0856 43.4245 22.3978 43.1738 22.6621C42.9277 22.9219 42.6475 23.1383 42.333 23.3115C42.0186 23.4801 41.6813 23.6055 41.3213 23.6875C40.9613 23.7695 40.5967 23.8105 40.2275 23.8105C39.6305 23.8105 39.0768 23.7103 38.5664 23.5098C38.056 23.3047 37.6139 23.0199 37.2402 22.6553C36.8711 22.2861 36.5817 21.8509 36.3721 21.3496C36.1624 20.8438 36.0576 20.29 36.0576 19.6885C36.0576 19.0824 36.1602 18.5264 36.3652 18.0205C36.5749 17.5146 36.8643 17.0794 37.2334 16.7148C37.6025 16.3503 38.0423 16.0677 38.5527 15.8672C39.0632 15.6667 39.6214 15.5664 40.2275 15.5664C40.6104 15.5664 40.984 15.6097 41.3486 15.6963C41.7132 15.7783 42.0505 15.9082 42.3604 16.0859C42.6748 16.2591 42.9551 16.4801 43.2012 16.749C43.4518 17.0179 43.6523 17.3392 43.8027 17.7129Z" fill="#616161"/>
<path d="M53.1201 23.6533H50.8096V22.71C50.5361 23.0837 50.2057 23.3617 49.8184 23.5439C49.4355 23.7217 49.014 23.8105 48.5537 23.8105C47.9521 23.8105 47.4144 23.7035 46.9404 23.4893C46.4665 23.2751 46.0654 22.9834 45.7373 22.6143C45.4092 22.2406 45.1585 21.8031 44.9854 21.3018C44.8122 20.8005 44.7256 20.2627 44.7256 19.6885C44.7256 19.1143 44.8122 18.5765 44.9854 18.0752C45.1585 17.5739 45.4092 17.1387 45.7373 16.7695C46.0654 16.3958 46.4665 16.1019 46.9404 15.8877C47.4144 15.6735 47.9521 15.5664 48.5537 15.5664C48.8591 15.5664 49.1484 15.612 49.4219 15.7031C49.6999 15.7943 49.9528 15.9242 50.1807 16.0928C50.4131 16.2568 50.6159 16.4574 50.7891 16.6943C50.9668 16.9268 51.1058 17.1865 51.2061 17.4736L52.2314 15.7578H53.1201V23.6533ZM50.7959 19.6885C50.7959 19.4834 50.7845 19.2669 50.7617 19.0391C50.7435 18.8112 50.7093 18.5856 50.6592 18.3623C50.6091 18.139 50.5384 17.9271 50.4473 17.7266C50.3607 17.5215 50.2467 17.3415 50.1055 17.1865C49.9688 17.027 49.8024 16.9017 49.6064 16.8105C49.4105 16.7194 49.1826 16.6738 48.9229 16.6738C48.6631 16.6738 48.4375 16.7217 48.2461 16.8174C48.0547 16.9085 47.8906 17.0339 47.7539 17.1934C47.6172 17.3483 47.5033 17.5283 47.4121 17.7334C47.3255 17.9385 47.2572 18.1527 47.207 18.376C47.1569 18.5993 47.1204 18.8249 47.0977 19.0527C47.0794 19.276 47.0703 19.488 47.0703 19.6885C47.0703 19.889 47.0794 20.1032 47.0977 20.3311C47.1204 20.5589 47.1569 20.7845 47.207 21.0078C47.2572 21.2311 47.3255 21.4453 47.4121 21.6504C47.5033 21.8555 47.6172 22.0378 47.7539 22.1973C47.8906 22.3522 48.0547 22.4775 48.2461 22.5732C48.4375 22.6644 48.6631 22.71 48.9229 22.71C49.1598 22.71 49.3695 22.6621 49.5518 22.5664C49.7386 22.4661 49.9004 22.334 50.0371 22.1699C50.1784 22.0059 50.2969 21.819 50.3926 21.6094C50.4883 21.3997 50.5658 21.1833 50.625 20.96C50.6842 20.7367 50.7275 20.5156 50.7549 20.2969C50.7822 20.0736 50.7959 19.8708 50.7959 19.6885Z" fill="#616161"/>
<path d="M57.3652 23.6533H55.0547V12.1211H55.9434L57.3652 14.5205V23.6533Z" fill="#616161"/>
<path d="M67.2432 23.6533H64.9326V22.71C64.6592 23.0837 64.3288 23.3617 63.9414 23.5439C63.5586 23.7217 63.137 23.8105 62.6768 23.8105C62.0752 23.8105 61.5374 23.7035 61.0635 23.4893C60.5895 23.2751 60.1885 22.9834 59.8604 22.6143C59.5322 22.2406 59.2816 21.8031 59.1084 21.3018C58.9352 20.8005 58.8486 20.2627 58.8486 19.6885C58.8486 19.1143 58.9352 18.5765 59.1084 18.0752C59.2816 17.5739 59.5322 17.1387 59.8604 16.7695C60.1885 16.3958 60.5895 16.1019 61.0635 15.8877C61.5374 15.6735 62.0752 15.5664 62.6768 15.5664C62.9821 15.5664 63.2715 15.612 63.5449 15.7031C63.8229 15.7943 64.0758 15.9242 64.3037 16.0928C64.5361 16.2568 64.7389 16.4574 64.9121 16.6943C65.0898 16.9268 65.2288 17.1865 65.3291 17.4736L66.3545 15.7578H67.2432V23.6533ZM64.9189 19.6885C64.9189 19.4834 64.9076 19.2669 64.8848 19.0391C64.8665 18.8112 64.8324 18.5856 64.7822 18.3623C64.7321 18.139 64.6615 17.9271 64.5703 17.7266C64.4837 17.5215 64.3698 17.3415 64.2285 17.1865C64.0918 17.027 63.9255 16.9017 63.7295 16.8105C63.5335 16.7194 63.3057 16.6738 63.0459 16.6738C62.7861 16.6738 62.5605 16.7217 62.3691 16.8174C62.1777 16.9085 62.0137 17.0339 61.877 17.1934C61.7402 17.3483 61.6263 17.5283 61.5352 17.7334C61.4486 17.9385 61.3802 18.1527 61.3301 18.376C61.2799 18.5993 61.2435 18.8249 61.2207 19.0527C61.2025 19.276 61.1934 19.488 61.1934 19.6885C61.1934 19.889 61.2025 20.1032 61.2207 20.3311C61.2435 20.5589 61.2799 20.7845 61.3301 21.0078C61.3802 21.2311 61.4486 21.4453 61.5352 21.6504C61.6263 21.8555 61.7402 22.0378 61.877 22.1973C62.0137 22.3522 62.1777 22.4775 62.3691 22.5732C62.5605 22.6644 62.7861 22.71 63.0459 22.71C63.2829 22.71 63.4925 22.6621 63.6748 22.5664C63.8617 22.4661 64.0234 22.334 64.1602 22.1699C64.3014 22.0059 64.4199 21.819 64.5156 21.6094C64.6113 21.3997 64.6888 21.1833 64.748 20.96C64.8073 20.7367 64.8506 20.5156 64.8779 20.2969C64.9053 20.0736 64.9189 19.8708 64.9189 19.6885Z" fill="#616161"/>
<path d="M71.4199 22.6279C71.4199 22.8011 71.388 22.9652 71.3242 23.1201C71.2604 23.2705 71.1716 23.4027 71.0576 23.5166C70.9437 23.626 70.8115 23.7126 70.6611 23.7764C70.5107 23.8447 70.349 23.8789 70.1758 23.8789C70.0026 23.8789 69.8408 23.8447 69.6904 23.7764C69.54 23.7126 69.4079 23.626 69.2939 23.5166C69.18 23.4027 69.0911 23.2705 69.0273 23.1201C68.9635 22.9652 68.9316 22.8011 68.9316 22.6279C68.9316 22.4593 68.9635 22.2998 69.0273 22.1494C69.0911 21.9945 69.18 21.8623 69.2939 21.7529C69.4079 21.639 69.54 21.5501 69.6904 21.4863C69.8408 21.418 70.0026 21.3838 70.1758 21.3838C70.349 21.3838 70.5107 21.418 70.6611 21.4863C70.8115 21.5501 70.9437 21.639 71.0576 21.7529C71.1716 21.8623 71.2604 21.9945 71.3242 22.1494C71.388 22.2998 71.4199 22.4593 71.4199 22.6279Z" fill="#616161"/>
<path d="M75.5283 13.8506C75.5283 14.0238 75.4941 14.1878 75.4258 14.3428C75.362 14.4977 75.2731 14.6322 75.1592 14.7461C75.0452 14.86 74.9108 14.9512 74.7559 15.0195C74.6009 15.0833 74.4368 15.1152 74.2637 15.1152C74.0905 15.1152 73.9264 15.0833 73.7715 15.0195C73.6211 14.9512 73.4889 14.86 73.375 14.7461C73.2611 14.6322 73.1699 14.4977 73.1016 14.3428C73.0378 14.1878 73.0059 14.0238 73.0059 13.8506C73.0059 13.6774 73.0378 13.5156 73.1016 13.3652C73.1699 13.2103 73.2611 13.0758 73.375 12.9619C73.4889 12.848 73.6211 12.7591 73.7715 12.6953C73.9264 12.627 74.0905 12.5928 74.2637 12.5928C74.4368 12.5928 74.6009 12.627 74.7559 12.6953C74.9108 12.7591 75.0452 12.848 75.1592 12.9619C75.2731 13.0758 75.362 13.2103 75.4258 13.3652C75.4941 13.5156 75.5283 13.6774 75.5283 13.8506ZM75.4258 23.6533H73.1084V15.7646H75.4258V23.6533Z" fill="#616161"/>
<path d="M85.707 19.6885C85.707 20.0986 85.6523 20.4837 85.543 20.8438C85.4336 21.2038 85.2809 21.5365 85.085 21.8418C84.8936 22.1471 84.6611 22.4229 84.3877 22.6689C84.1143 22.9105 83.8135 23.1156 83.4854 23.2842C83.1618 23.4528 82.8131 23.5827 82.4395 23.6738C82.0703 23.765 81.6898 23.8105 81.2979 23.8105C80.9059 23.8105 80.5254 23.765 80.1562 23.6738C79.7871 23.5827 79.4385 23.4528 79.1104 23.2842C78.7868 23.1156 78.4883 22.9105 78.2148 22.6689C77.9414 22.4229 77.7067 22.1471 77.5107 21.8418C77.3193 21.5365 77.1689 21.2038 77.0596 20.8438C76.9502 20.4792 76.8955 20.0941 76.8955 19.6885C76.8955 19.2829 76.9502 18.9001 77.0596 18.54C77.1689 18.1755 77.3193 17.8405 77.5107 17.5352C77.7067 17.2298 77.9414 16.9564 78.2148 16.7148C78.4883 16.4688 78.7868 16.2614 79.1104 16.0928C79.4385 15.9242 79.7871 15.7943 80.1562 15.7031C80.5254 15.612 80.9059 15.5664 81.2979 15.5664C81.6898 15.5664 82.0703 15.612 82.4395 15.7031C82.8131 15.7943 83.1618 15.9242 83.4854 16.0928C83.8135 16.2614 84.1143 16.4688 84.3877 16.7148C84.6611 16.9564 84.8936 17.2298 85.085 17.5352C85.2809 17.8405 85.4336 18.1755 85.543 18.54C85.6523 18.9001 85.707 19.2829 85.707 19.6885ZM83.3555 19.6885C83.3555 19.4697 83.3418 19.2396 83.3145 18.998C83.2917 18.752 83.2506 18.5127 83.1914 18.2803C83.1322 18.0433 83.0501 17.8177 82.9453 17.6035C82.8451 17.3848 82.7197 17.1956 82.5693 17.0361C82.4189 16.8721 82.2389 16.7422 82.0293 16.6465C81.8197 16.5462 81.5758 16.4961 81.2979 16.4961C81.0335 16.4961 80.7988 16.5462 80.5938 16.6465C80.3887 16.7467 80.2087 16.8812 80.0537 17.0498C79.9033 17.2139 79.7757 17.4053 79.6709 17.624C79.5706 17.8428 79.4886 18.0706 79.4248 18.3076C79.361 18.54 79.3154 18.777 79.2881 19.0186C79.2607 19.2555 79.2471 19.4788 79.2471 19.6885C79.2471 19.8981 79.2607 20.1237 79.2881 20.3652C79.3154 20.6022 79.361 20.8392 79.4248 21.0762C79.4886 21.3132 79.5706 21.541 79.6709 21.7598C79.7757 21.974 79.9033 22.1654 80.0537 22.334C80.2087 22.498 80.3887 22.6302 80.5938 22.7305C80.7988 22.8307 81.0335 22.8809 81.2979 22.8809C81.5713 22.8809 81.8128 22.833 82.0225 22.7373C82.2321 22.637 82.4121 22.5049 82.5625 22.3408C82.7174 22.1768 82.8451 21.9876 82.9453 21.7734C83.0456 21.5592 83.1253 21.3337 83.1846 21.0967C83.2484 20.8597 83.2917 20.6204 83.3145 20.3789C83.3418 20.1374 83.3555 19.9072 83.3555 19.6885Z" fill="#616161"/>
</svg>
