<svg width="99" height="36" viewBox="0 0 99 36" fill="none" xmlns="http://www.w3.org/2000/svg">
<rect x="0.25" y="0.25" width="98.0136" height="35.5" rx="17.75" fill="#2E2E2E"/>
<rect x="0.25" y="0.25" width="98.0136" height="35.5" rx="17.75" stroke="#575757" stroke-width="0.5"/>
<path d="M19.032 22.9075C15.275 22.9075 13.117 22.0105 13 19.5665H16.172C16.172 20.2425 16.874 20.6975 18.902 20.6975C20.969 20.6975 21.359 20.4115 21.359 19.9175C21.359 19.3455 21.008 19.2285 18.746 19.0855L18.291 19.0595C14.716 18.8515 13.143 17.9675 13.143 15.9655C13.143 14.0545 15.184 13.0925 18.395 13.0925C22.061 13.0925 24.024 14.2105 24.141 16.2775H20.969C20.969 15.5625 20.124 15.3025 18.369 15.3025C16.718 15.3025 16.315 15.5625 16.315 15.9655C16.315 16.4465 16.666 16.6285 18.759 16.7715L19.292 16.8105C22.477 17.0575 24.531 17.3955 24.531 19.8005C24.531 22.1535 22.477 22.9075 19.032 22.9075Z" fill="#C2C2C2"/>
<path d="M24.7686 22.6475L29.5526 13.3135H33.4526L38.2236 22.6475H34.9606L34.1416 20.9185H28.8506L28.0186 22.6475H24.7686ZM29.8906 18.7215H33.0886L31.4896 15.3805L29.8906 18.7215Z" fill="#C2C2C2"/>
<path d="M39.257 22.6475V13.3135H44.028L46.797 19.1245L49.553 13.3135H54.311V22.6475H51.256V16.2125L48.214 22.6475H45.367L42.312 16.2125V22.6475H39.257Z" fill="#C2C2C2"/>
<path d="M55.6055 15.8875V13.3135H66.7075V15.8875H62.6905V22.6475H59.6355V15.8875H55.6055Z" fill="#C2C2C2"/>
<path d="M67.9864 22.6475V13.3135H71.0414V22.6475H67.9864Z" fill="#C2C2C2"/>
<path d="M76.5956 22.6475L72.0586 13.3135H75.3086L78.7796 20.5805L82.2506 13.3135H85.5136L80.9506 22.6475H76.5956Z" fill="#C2C2C2"/>
</svg>
