<svg width="78" height="36" viewBox="0 0 78 36" fill="none" xmlns="http://www.w3.org/2000/svg">
<rect width="78" height="36" rx="18" fill="#D9D9D9"/>
<path d="M18.7129 14.459C18.6536 14.8102 18.7277 15.1191 18.9351 15.3857C19.1424 15.6481 19.4535 15.8914 19.8682 16.1157C20.2871 16.34 20.7547 16.5685 21.271 16.8013C21.7915 17.034 22.2401 17.2668 22.6167 17.4995C22.9976 17.7323 23.3128 18.0179 23.5625 18.3564C23.8122 18.695 23.9328 19.0928 23.9243 19.5498C23.9116 20.0999 23.7572 20.5591 23.4609 20.9272C23.1647 21.2954 22.7775 21.5684 22.2993 21.7461C21.8254 21.9238 21.3112 22.0169 20.7568 22.0254C20.084 22.0339 19.4852 21.9386 18.9604 21.7397C18.4399 21.5366 18.0781 21.1388 17.875 20.5464C17.8158 20.3644 17.8094 20.193 17.856 20.0322C17.9025 19.8714 17.9935 19.755 18.1289 19.6831C18.2432 19.6281 18.3765 19.6112 18.5288 19.6323C18.6769 19.6535 18.7891 19.7402 18.8652 19.8926C18.9414 20.0449 19.026 20.2798 19.1191 20.5972C19.1911 20.8468 19.2821 21.0584 19.3921 21.2319C19.5021 21.4054 19.6735 21.5493 19.9062 21.6636C20.1432 21.7778 20.4606 21.835 20.8584 21.835C21.2816 21.8307 21.6815 21.7313 22.0581 21.5366C22.439 21.342 22.7352 21.0902 22.9468 20.7812C23.1626 20.4681 23.2493 20.138 23.207 19.791C23.1689 19.4398 22.9743 19.1203 22.623 18.8325C22.3649 18.6167 21.9671 18.3628 21.4297 18.0708C20.8923 17.7788 20.3612 17.4762 19.8364 17.1631C19.3117 16.8457 18.8906 16.5177 18.5732 16.1792C18.2559 15.8364 18.0887 15.464 18.0718 15.062C18.0506 14.5161 18.1924 14.0675 18.4971 13.7163C18.8018 13.3651 19.2017 13.1281 19.6968 13.0054C20.1961 12.8784 20.7188 12.8678 21.2646 12.9736C21.8148 13.0752 22.3057 13.2826 22.7373 13.5957C22.8812 13.7015 23.0124 13.8348 23.1309 13.9956C23.2493 14.1522 23.3234 14.3109 23.353 14.4717C23.3826 14.6283 23.3594 14.7679 23.2832 14.8906C23.2113 15.0091 23.1118 15.0916 22.9849 15.1382C22.8621 15.1805 22.7394 15.1847 22.6167 15.1509C22.4982 15.117 22.3988 15.0493 22.3184 14.9478C22.2422 14.8462 22.2041 14.7256 22.2041 14.5859C22.2041 14.459 22.2401 14.3426 22.312 14.2368C22.2866 13.9702 22.1787 13.7459 21.9883 13.564C21.7979 13.382 21.5736 13.2466 21.3154 13.1577C21.0615 13.0688 20.8224 13.0202 20.5981 13.0117C20.1284 12.999 19.7158 13.126 19.3604 13.3926C19.0091 13.6549 18.7933 14.0104 18.7129 14.459ZM30.0308 20.8193C30.272 20.8828 30.4222 21.0352 30.4814 21.2764C30.5238 21.4668 30.4836 21.6361 30.3608 21.7842C30.2424 21.9281 30.09 22 29.9038 22C29.9165 22 29.9123 22 29.8911 22H24.8828V12.8784H25.6572V21.8032H28.9263C29.0363 21.8032 29.1273 21.7651 29.1992 21.689C29.2712 21.6086 29.3071 21.5155 29.3071 21.4097C29.3071 21.4054 29.3071 21.4033 29.3071 21.4033C29.3071 21.2129 29.3791 21.0584 29.5229 20.9399C29.6711 20.8215 29.8403 20.7812 30.0308 20.8193ZM33.9727 12.8911H34.8042L37.5337 22.0063H36.6387L35.2866 17.4995C34.4784 17.7365 33.7716 18.13 33.1665 18.6802C32.5656 19.2261 32.1403 19.863 31.8906 20.5908L31.8843 20.5972C31.8674 20.6564 31.8758 20.7114 31.9097 20.7622C31.9478 20.8088 31.9985 20.8341 32.062 20.8384C32.0832 20.8384 32.1022 20.8384 32.1191 20.8384C32.2461 20.8595 32.354 20.9167 32.4429 21.0098C32.536 21.1029 32.591 21.215 32.6079 21.3462C32.6291 21.5197 32.5804 21.672 32.4619 21.8032C32.3477 21.9344 32.2038 22 32.0303 22C31.8695 22 31.7319 21.9429 31.6177 21.8286C31.5034 21.7144 31.4463 21.5768 31.4463 21.416C31.4463 21.3695 31.4526 21.3145 31.4653 21.251L33.9409 12.999L33.9727 12.8911ZM32.208 19.5181C32.5169 18.9722 32.9274 18.4961 33.4395 18.0898C33.9557 17.6794 34.5397 17.3747 35.1914 17.1758L34.0488 13.3799L32.208 19.5181ZM42.4595 12.8784C42.6076 12.8784 42.7345 12.9355 42.8403 13.0498C42.9504 13.1641 43.0054 13.3016 43.0054 13.4624C43.0054 13.6232 42.9504 13.7607 42.8403 13.875C42.7345 13.9893 42.6076 14.0464 42.4595 14.0464C42.4552 14.0464 42.4531 14.0464 42.4531 14.0464C42.3008 14.0422 42.1632 14.0845 42.0405 14.1733C41.922 14.258 41.8438 14.3722 41.8057 14.5161L39.9331 21.9302L39.9077 22.0381H39.7173H39.2095L36.9053 12.9229H37.6606C38.3081 15.4873 39.0339 18.3649 39.8379 21.5557C42.0723 12.707 42.7642 9.97331 41.9136 13.3545C41.9474 13.2148 42.013 13.1006 42.1104 13.0117C42.2119 12.9229 42.3283 12.8784 42.4595 12.8784ZM43.9639 21.9111V12.7959H44.7383V13.6147V15.8872V17.0107V17.6963V18.5469V21.0923V21.9111H43.9639ZM50.1401 12.8911C50.7072 12.9334 51.2362 13.0921 51.7271 13.3672C52.2179 13.638 52.639 13.9998 52.9902 14.4526C53.1087 14.6007 53.1489 14.77 53.1108 14.9604C53.0812 15.0832 53.0156 15.189 52.9141 15.2778C52.8167 15.3667 52.7046 15.4154 52.5776 15.4238C52.3787 15.4365 52.2158 15.373 52.0889 15.2334C51.9619 15.0895 51.9132 14.916 51.9429 14.7129C51.9937 14.4971 52.1227 14.349 52.3301 14.2686C52.3343 14.2686 52.3364 14.2664 52.3364 14.2622C52.4041 14.241 52.4443 14.1966 52.457 14.1289C52.4697 14.057 52.4507 13.9977 52.3999 13.9512C52.3068 13.8665 52.2137 13.7904 52.1206 13.7227C51.6043 13.3418 51.0267 13.1598 50.3877 13.1768C49.7487 13.1895 49.1266 13.3862 48.5215 13.7671C47.9163 14.1479 47.4064 14.6748 46.9917 15.3477C46.577 16.0247 46.321 16.742 46.2236 17.4995C46.1305 18.257 46.1982 18.9637 46.4268 19.6196C46.6553 20.2713 47.0277 20.7855 47.5439 21.1621C47.9967 21.4964 48.5024 21.6784 49.061 21.708C49.6239 21.7334 50.1803 21.6128 50.7305 21.3462C51.2806 21.0796 51.7715 20.6882 52.2031 20.1719C52.3301 20.2734 52.4718 20.3285 52.6284 20.3369C52.7808 20.3496 52.9246 20.3179 53.0601 20.2417C52.6411 20.8257 52.1185 21.2764 51.4922 21.5938C50.8701 21.9069 50.2121 22.0381 49.5181 21.9873C48.769 21.9365 48.092 21.6868 47.4868 21.2383C46.8859 20.7855 46.4246 20.1994 46.103 19.48C45.7814 18.7563 45.6481 17.9819 45.7031 17.1567C45.7581 16.3315 45.9951 15.5846 46.4141 14.916C46.833 14.2432 47.3726 13.7248 48.0327 13.3608C48.6929 12.9969 49.3953 12.8403 50.1401 12.8911ZM56.6084 12.8911H57.4399L60.1694 22.0063H59.2744L57.9224 17.4995C57.1141 17.7365 56.4074 18.13 55.8022 18.6802C55.2013 19.2261 54.776 19.863 54.5264 20.5908L54.52 20.5972C54.5031 20.6564 54.5116 20.7114 54.5454 20.7622C54.5835 20.8088 54.6343 20.8341 54.6978 20.8384C54.7189 20.8384 54.738 20.8384 54.7549 20.8384C54.8818 20.8595 54.9897 20.9167 55.0786 21.0098C55.1717 21.1029 55.2267 21.215 55.2437 21.3462C55.2648 21.5197 55.2161 21.672 55.0977 21.8032C54.9834 21.9344 54.8395 22 54.666 22C54.5052 22 54.3677 21.9429 54.2534 21.8286C54.1392 21.7144 54.082 21.5768 54.082 21.416C54.082 21.3695 54.0884 21.3145 54.1011 21.251L56.5767 12.999L56.6084 12.8911ZM54.8438 19.5181C55.1527 18.9722 55.5632 18.4961 56.0752 18.0898C56.5915 17.6794 57.1755 17.3747 57.8271 17.1758L56.6846 13.3799L54.8438 19.5181Z" fill="#616161"/>
</svg>
