<svg width="91" height="36" viewBox="0 0 91 36" fill="none" xmlns="http://www.w3.org/2000/svg">
<rect width="90.8354" height="36" rx="18" fill="#D9D9D9"/>
<path d="M20 17.9999C20 16.9096 20.9978 16.0024 22.5344 15.5344C23.0025 13.9978 23.9096 13 25.0001 13C26.0905 13 26.9976 13.9978 27.4656 15.5344C29.0022 16.0024 30 16.9098 30 17.9999C30 19.0901 29.0022 19.9975 27.4656 20.4656C26.9976 22.0023 26.0904 23 25.0001 23C23.9098 23 23.0026 22.0022 22.5344 20.4656C20.9977 19.9975 20 19.0904 20 17.9999ZM25.0001 14.2313C24.6696 14.2313 24.2737 14.5928 23.9612 15.2478C24.2945 15.2112 24.6416 15.1922 25.0001 15.1922C25.3585 15.1922 25.7056 15.2112 26.0388 15.2478C25.7264 14.5926 25.3304 14.2313 25.0001 14.2313ZM23.4234 17.9999C23.4234 18.5314 23.4713 19.0155 23.5526 19.4473C23.9844 19.5286 24.4685 19.5765 24.9999 19.5765C25.5314 19.5765 26.0155 19.5286 26.4473 19.4473C26.5286 19.0155 26.5765 18.5314 26.5765 17.9999C26.5765 17.4685 26.5286 16.9844 26.4473 16.5526C26.0155 16.4713 25.5314 16.4234 24.9999 16.4234C24.4685 16.4234 23.9844 16.4713 23.5526 16.5526C23.4713 16.9844 23.4234 17.4685 23.4234 17.9999ZM28.7687 17.9999C28.7687 17.6695 28.4072 17.2736 27.7522 16.9612C27.7888 17.2945 27.8078 17.6416 27.8078 17.9999C27.8078 18.3582 27.7888 18.7055 27.7522 19.0388C28.4074 18.7264 28.7687 18.3304 28.7687 17.9999ZM25.0001 21.7687C25.3305 21.7687 25.7264 21.4074 26.0388 20.7522C25.7055 20.7888 25.3584 20.8078 25.0001 20.8078C24.6418 20.8078 24.2945 20.7888 23.9612 20.7522C24.2736 21.4074 24.6696 21.7687 25.0001 21.7687ZM22.2478 19.0388C22.2112 18.7055 22.1922 18.3584 22.1922 17.9999C22.1922 17.6415 22.2112 17.2945 22.2478 16.9612C21.5926 17.2736 21.2313 17.6695 21.2313 17.9999C21.2313 18.3304 21.5926 18.7263 22.2478 19.0388Z" fill="#616161"/>
<path d="M41.1411 13.2678V19.1902C41.1411 19.698 41.1178 20.1339 41.0713 20.4978C41.029 20.8617 40.9507 21.1855 40.8364 21.469C40.7222 21.7483 40.5783 21.9768 40.4048 22.1545C40.2355 22.328 40.0112 22.4719 39.7319 22.5862C39.4569 22.6962 39.1479 22.7724 38.8052 22.8147C38.4624 22.857 38.0477 22.8782 37.561 22.8782C37.0913 22.8782 36.6914 22.8591 36.3613 22.821C36.0312 22.783 35.7266 22.7131 35.4473 22.6116C35.168 22.5058 34.9416 22.3682 34.7681 22.199C34.5988 22.0255 34.4528 21.8012 34.3301 21.5261C34.2074 21.2468 34.1206 20.9189 34.0698 20.5422C34.0233 20.1656 34 19.7149 34 19.1902V13.2678H35.2886V19.3552C35.2886 19.7065 35.2886 19.9604 35.2886 20.1169C35.2928 20.2735 35.3055 20.4661 35.3267 20.6946C35.3478 20.9189 35.3753 21.0733 35.4092 21.158C35.443 21.2384 35.498 21.3399 35.5742 21.4626C35.6546 21.5854 35.7435 21.6637 35.8408 21.6975C35.9424 21.7271 36.0799 21.7652 36.2534 21.8118C36.4269 21.8583 36.6131 21.8858 36.812 21.8943C37.0151 21.8985 37.2669 21.9006 37.5674 21.9006C37.9229 21.9006 38.2191 21.8901 38.4561 21.8689C38.6973 21.8477 38.9067 21.8054 39.0845 21.7419C39.2622 21.6785 39.3976 21.6065 39.4907 21.5261C39.5881 21.4415 39.6642 21.3188 39.7192 21.158C39.7785 20.9972 39.8166 20.83 39.8335 20.6565C39.8504 20.483 39.8589 20.2524 39.8589 19.9646L39.8525 13.2678H41.1411Z" fill="#616161"/>
<path d="M50.1421 22.7258H48.8027L44.2959 15.2546V22.7258H43.166V13.2678H44.4673L49.0122 20.8406V13.2678H50.1421V22.7258Z" fill="#616161"/>
<path d="M53.5825 22.7258H52.2939V13.2678H53.5825V22.7258Z" fill="#616161"/>
<path d="M61.2949 19.7932L62.3994 19.9583C62.3783 20.3645 62.3423 20.7115 62.2915 20.9993C62.2407 21.2828 62.1646 21.5367 62.063 21.761C61.9657 21.9853 61.8451 22.1672 61.7012 22.3069C61.5573 22.4423 61.3711 22.5544 61.1426 22.6433C60.9183 22.7322 60.6644 22.7935 60.3809 22.8274C60.1016 22.8612 59.763 22.8782 59.3652 22.8782C58.9844 22.8782 58.6437 22.8676 58.3433 22.8464C58.0428 22.8295 57.7677 22.7893 57.5181 22.7258C57.2726 22.6581 57.0568 22.5946 56.8706 22.5354C56.6886 22.4719 56.5257 22.3682 56.3818 22.2244C56.2422 22.0805 56.1237 21.9514 56.0264 21.8372C55.9333 21.7229 55.8529 21.5494 55.7852 21.3167C55.7217 21.0797 55.673 20.8723 55.6392 20.6946C55.6053 20.5168 55.5778 20.2587 55.5566 19.9202C55.5397 19.5816 55.5291 19.2854 55.5249 19.0315C55.5207 18.7776 55.5186 18.4264 55.5186 17.9778C55.5186 17.5038 55.5207 17.123 55.5249 16.8352C55.5291 16.5474 55.5418 16.2343 55.563 15.8958C55.5841 15.5572 55.6095 15.2948 55.6392 15.1086C55.673 14.9224 55.7238 14.7193 55.7915 14.4993C55.8634 14.275 55.9438 14.1099 56.0327 14.0042C56.1216 13.8941 56.238 13.7756 56.3818 13.6487C56.5257 13.5217 56.6823 13.435 56.8516 13.3884C57.0251 13.3376 57.2345 13.2869 57.48 13.2361C57.7254 13.1853 57.9878 13.1536 58.2671 13.1409C58.5506 13.1282 58.8786 13.1218 59.251 13.1218C59.6361 13.1218 59.964 13.1366 60.2349 13.1663C60.5057 13.1917 60.7596 13.2445 60.9966 13.325C61.2336 13.4011 61.4282 13.5048 61.5806 13.636C61.7329 13.7629 61.8662 13.9301 61.9805 14.1375C62.099 14.3448 62.1899 14.5903 62.2534 14.8738C62.3169 15.1531 62.3634 15.4895 62.3931 15.8831L61.2822 16.0989C61.2611 15.8831 61.242 15.7032 61.2251 15.5593C61.2082 15.4154 61.1828 15.2737 61.1489 15.134C61.1193 14.9944 61.0939 14.8822 61.0728 14.7976C61.0558 14.7087 61.0177 14.6241 60.9585 14.5437C60.8993 14.4591 60.8506 14.3956 60.8125 14.3533C60.7786 14.311 60.7131 14.2708 60.6157 14.2327C60.5184 14.1946 60.4359 14.1692 60.3682 14.1565C60.3047 14.1396 60.1968 14.1248 60.0444 14.1121C59.8963 14.0994 59.7673 14.093 59.6572 14.093C59.5472 14.093 59.3864 14.093 59.1748 14.093C58.8786 14.093 58.6353 14.0972 58.4448 14.1057C58.2586 14.1099 58.0703 14.1248 57.8799 14.1501C57.6937 14.1713 57.5456 14.2052 57.4355 14.2517C57.3298 14.294 57.2303 14.3533 57.1372 14.4294C57.0441 14.5014 56.9764 14.5924 56.9341 14.7024C56.896 14.8082 56.8727 14.9373 56.8643 15.0896C56.8262 16.2068 56.8071 17.3472 56.8071 18.511C56.8071 19.3235 56.8262 20.1169 56.8643 20.8914C56.8854 21.1326 56.9531 21.3209 57.0674 21.4563C57.1859 21.5917 57.4123 21.6996 57.7466 21.78C58.0851 21.8604 58.5633 21.9006 59.1812 21.9006C59.5112 21.9006 59.7884 21.8922 60.0127 21.8752C60.237 21.8541 60.4253 21.8097 60.5776 21.7419C60.73 21.67 60.8464 21.6065 60.9268 21.5515C61.0072 21.4923 61.0706 21.3801 61.1172 21.2151C61.168 21.05 61.1997 20.9125 61.2124 20.8025C61.2293 20.6882 61.2463 20.4957 61.2632 20.2249C61.2674 20.1656 61.2695 20.1191 61.2695 20.0852C61.2738 20.0514 61.278 20.0069 61.2822 19.9519C61.2865 19.8927 61.2907 19.8398 61.2949 19.7932Z" fill="#616161"/>
<path d="M70.8354 22.7258H69.5278L68.8105 20.3074H65.313L64.6211 22.7258H63.3833L66.2842 13.2678H68.0044L70.8354 22.7258ZM68.5439 19.3933L67.7441 16.5559L67.084 14.2327C66.8385 15.1086 66.6227 15.8619 66.4365 16.4924L65.5859 19.3933H68.5439Z" fill="#616161"/>
</svg>
